<svg width="25" height="25" viewBox="0 0 25 25" fill="none" xmlns="http://www.w3.org/2000/svg">
<path d="M25 12.5C25 19.4052 19.4052 25 12.5 25C5.59476 25 0 19.4052 0 12.5C0 5.59476 5.59476 0 12.5 0C19.4052 0 25 5.59476 25 12.5ZM17.7621 11.0433L14.1129 14.8488V5.64516C14.1129 4.9748 13.5736 4.43548 12.9032 4.43548H12.0968C11.4264 4.43548 10.8871 4.9748 10.8871 5.64516V14.8488L7.2379 11.0433C6.76915 10.5544 5.9879 10.5444 5.50907 11.0232L4.95968 11.5776C4.48589 12.0514 4.48589 12.8175 4.95968 13.2863L11.6431 19.9748C12.1169 20.4486 12.8831 20.4486 13.3518 19.9748L20.0403 13.2863C20.5141 12.8125 20.5141 12.0464 20.0403 11.5776L19.4909 11.0232C19.0121 10.5444 18.2308 10.5544 17.7621 11.0433Z" fill="#4E9CE4"/>
</svg>
