<svg width="110" height="16" viewBox="0 0 110 16" fill="none" xmlns="http://www.w3.org/2000/svg">
<path d="M0.147727 12V0.363636H4.51136C5.4053 0.363636 6.1553 0.530303 6.76136 0.863636C7.37121 1.19697 7.83144 1.6553 8.14205 2.23864C8.45644 2.81818 8.61364 3.47727 8.61364 4.21591C8.61364 4.96212 8.45644 5.625 8.14205 6.20455C7.82765 6.78409 7.36364 7.24053 6.75 7.57386C6.13636 7.90341 5.38068 8.06818 4.48295 8.06818H1.59091V6.33523H4.19886C4.72159 6.33523 5.14962 6.24432 5.48295 6.0625C5.81629 5.88068 6.0625 5.63068 6.22159 5.3125C6.38447 4.99432 6.46591 4.62879 6.46591 4.21591C6.46591 3.80303 6.38447 3.43939 6.22159 3.125C6.0625 2.81061 5.81439 2.56629 5.47727 2.39205C5.14394 2.21402 4.71402 2.125 4.1875 2.125H2.25568V12H0.147727ZM12.7088 12.1761C12.1558 12.1761 11.6577 12.0777 11.2145 11.8807C10.7751 11.6799 10.4266 11.3845 10.169 10.9943C9.91525 10.6042 9.78835 10.1231 9.78835 9.55114C9.78835 9.05871 9.87926 8.65152 10.0611 8.32955C10.2429 8.00758 10.491 7.75 10.8054 7.55682C11.1198 7.36364 11.474 7.2178 11.8679 7.11932C12.2656 7.01705 12.6766 6.94318 13.1009 6.89773C13.6122 6.8447 14.027 6.79735 14.3452 6.75568C14.6634 6.71023 14.8944 6.64205 15.0384 6.55114C15.1861 6.45644 15.2599 6.31061 15.2599 6.11364V6.07955C15.2599 5.65152 15.133 5.32008 14.8793 5.08523C14.6255 4.85038 14.2599 4.73295 13.7827 4.73295C13.2789 4.73295 12.8793 4.8428 12.5838 5.0625C12.2921 5.2822 12.0952 5.54167 11.9929 5.84091L10.0724 5.56818C10.224 5.03788 10.474 4.5947 10.8224 4.23864C11.1709 3.87879 11.5971 3.60985 12.1009 3.43182C12.6046 3.25 13.1615 3.15909 13.7713 3.15909C14.1918 3.15909 14.6103 3.20833 15.027 3.30682C15.4437 3.4053 15.8243 3.56818 16.169 3.79545C16.5137 4.01894 16.7902 4.32386 16.9986 4.71023C17.2107 5.09659 17.3168 5.57955 17.3168 6.15909V12H15.3395V10.8011H15.2713C15.1463 11.0436 14.9702 11.2708 14.7429 11.483C14.5194 11.6913 14.2372 11.8598 13.8963 11.9886C13.5592 12.1136 13.1634 12.1761 12.7088 12.1761ZM13.2429 10.6648C13.6558 10.6648 14.0137 10.5833 14.3168 10.4205C14.6198 10.2538 14.8527 10.0341 15.0156 9.76136C15.1823 9.48864 15.2656 9.19129 15.2656 8.86932V7.84091C15.2012 7.89394 15.0914 7.94318 14.9361 7.98864C14.7846 8.03409 14.6141 8.07386 14.4247 8.10795C14.2353 8.14205 14.0478 8.17235 13.8622 8.19886C13.6766 8.22538 13.5156 8.24811 13.3793 8.26705C13.0724 8.30871 12.7978 8.37689 12.5554 8.47159C12.313 8.56629 12.1217 8.69886 11.9815 8.86932C11.8414 9.03598 11.7713 9.25189 11.7713 9.51705C11.7713 9.89583 11.9096 10.1818 12.1861 10.375C12.4626 10.5682 12.8149 10.6648 13.2429 10.6648ZM20.3509 15.2727C20.0705 15.2727 19.8111 15.25 19.5724 15.2045C19.3376 15.1629 19.1501 15.1136 19.0099 15.0568L19.4872 13.4545C19.7865 13.5417 20.0535 13.5833 20.2884 13.5795C20.5232 13.5758 20.7296 13.5019 20.9077 13.358C21.0895 13.2178 21.2429 12.983 21.3679 12.6534L21.544 12.1818L18.3793 3.27273H20.5611L22.5724 9.86364H22.6634L24.6804 3.27273H26.8679L23.3736 13.0568C23.2107 13.5189 22.9948 13.9148 22.7259 14.2443C22.4569 14.5777 22.1274 14.8314 21.7372 15.0057C21.3509 15.1837 20.8887 15.2727 20.3509 15.2727ZM28.2912 12V3.27273H30.2571V4.75568H30.3594C30.5412 4.25568 30.8423 3.86553 31.2628 3.58523C31.6832 3.30114 32.1851 3.15909 32.7685 3.15909C33.3594 3.15909 33.8575 3.30303 34.2628 3.59091C34.6719 3.875 34.9598 4.26326 35.1264 4.75568H35.2173C35.4105 4.27083 35.7363 3.88447 36.1946 3.59659C36.6567 3.30492 37.2041 3.15909 37.8366 3.15909C38.6397 3.15909 39.295 3.41288 39.8026 3.92045C40.3101 4.42803 40.5639 5.16856 40.5639 6.14205V12H38.5014V6.46023C38.5014 5.91856 38.3575 5.52273 38.0696 5.27273C37.7817 5.01894 37.4295 4.89205 37.0128 4.89205C36.5166 4.89205 36.1283 5.04735 35.848 5.35795C35.5715 5.66477 35.4332 6.06439 35.4332 6.55682V12H33.4162V6.375C33.4162 5.92424 33.2798 5.56439 33.0071 5.29545C32.7382 5.02651 32.3859 4.89205 31.9503 4.89205C31.6548 4.89205 31.3859 4.9678 31.1435 5.11932C30.901 5.26705 30.7079 5.47727 30.5639 5.75C30.42 6.01894 30.348 6.33333 30.348 6.69318V12H28.2912ZM46.5142 12.1705C45.6392 12.1705 44.8835 11.9886 44.2472 11.625C43.6146 11.2576 43.1278 10.7386 42.7869 10.0682C42.446 9.39394 42.2756 8.60038 42.2756 7.6875C42.2756 6.78977 42.446 6.00189 42.7869 5.32386C43.1316 4.64205 43.6127 4.11174 44.2301 3.73295C44.8475 3.35038 45.5729 3.15909 46.4062 3.15909C46.9441 3.15909 47.4517 3.24621 47.929 3.42045C48.41 3.59091 48.8343 3.85606 49.2017 4.21591C49.5729 4.57576 49.8646 5.03409 50.0767 5.59091C50.2888 6.14394 50.3949 6.80303 50.3949 7.56818V8.19886H43.2415V6.8125H48.4233C48.4195 6.41856 48.3343 6.06818 48.1676 5.76136C48.0009 5.45076 47.768 5.20644 47.4688 5.02841C47.1733 4.85038 46.8286 4.76136 46.4347 4.76136C46.0142 4.76136 45.6449 4.86364 45.3267 5.06818C45.0085 5.26894 44.7604 5.53409 44.5824 5.86364C44.4081 6.18939 44.3191 6.54735 44.3153 6.9375V8.14773C44.3153 8.6553 44.4081 9.09091 44.5938 9.45455C44.7794 9.81439 45.0388 10.0909 45.3722 10.2841C45.7055 10.4735 46.0956 10.5682 46.5426 10.5682C46.8419 10.5682 47.1127 10.5265 47.3551 10.4432C47.5975 10.3561 47.8078 10.2292 47.9858 10.0625C48.1638 9.89583 48.2983 9.68939 48.3892 9.44318L50.3097 9.65909C50.1884 10.1667 49.9574 10.6098 49.6165 10.9886C49.2794 11.3636 48.8475 11.6553 48.321 11.8636C47.7945 12.0682 47.1922 12.1705 46.5142 12.1705ZM54.1918 6.88636V12H52.1349V3.27273H54.1009V4.75568H54.2031C54.4039 4.26705 54.724 3.87879 55.1634 3.59091C55.6065 3.30303 56.1539 3.15909 56.8054 3.15909C57.4077 3.15909 57.9323 3.28788 58.3793 3.54545C58.83 3.80303 59.1785 4.17614 59.4247 4.66477C59.6747 5.15341 59.7978 5.74621 59.794 6.44318V12H57.7372V6.76136C57.7372 6.17803 57.5857 5.72159 57.2827 5.39205C56.9834 5.0625 56.5687 4.89773 56.0384 4.89773C55.6785 4.89773 55.3584 4.97727 55.0781 5.13636C54.8016 5.29167 54.5838 5.51705 54.4247 5.8125C54.2694 6.10795 54.1918 6.46591 54.1918 6.88636ZM66.2429 3.27273V4.86364H61.2259V3.27273H66.2429ZM62.4645 1.18182H64.5213V9.375C64.5213 9.65152 64.563 9.86364 64.6463 10.0114C64.7334 10.1553 64.8471 10.2538 64.9872 10.3068C65.1274 10.3598 65.2827 10.3864 65.4531 10.3864C65.5819 10.3864 65.6993 10.3769 65.8054 10.358C65.9152 10.339 65.9986 10.322 66.0554 10.3068L66.402 11.9148C66.2921 11.9527 66.1349 11.9943 65.9304 12.0398C65.7296 12.0852 65.4834 12.1117 65.1918 12.1193C64.6766 12.1345 64.2126 12.0568 63.7997 11.8864C63.3868 11.7121 63.0592 11.4432 62.8168 11.0795C62.5781 10.7159 62.4607 10.2614 62.4645 9.71591V1.18182ZM75.1705 12.1534C74.4848 12.1534 73.8712 11.9773 73.3295 11.625C72.7879 11.2727 72.3598 10.7614 72.0455 10.0909C71.7311 9.42045 71.5739 8.60606 71.5739 7.64773C71.5739 6.67803 71.733 5.85985 72.0511 5.19318C72.3731 4.52273 72.8068 4.01705 73.3523 3.67614C73.8977 3.33144 74.5057 3.15909 75.1761 3.15909C75.6875 3.15909 76.108 3.24621 76.4375 3.42045C76.767 3.59091 77.0284 3.79735 77.2216 4.03977C77.4148 4.27841 77.5644 4.50379 77.6705 4.71591H77.7557V0.363636H79.8182V12H77.7955V10.625H77.6705C77.5644 10.8371 77.411 11.0625 77.2102 11.3011C77.0095 11.536 76.7443 11.7367 76.4148 11.9034C76.0852 12.0701 75.6705 12.1534 75.1705 12.1534ZM75.7443 10.4659C76.1799 10.4659 76.5511 10.3485 76.858 10.1136C77.1648 9.875 77.3977 9.54356 77.5568 9.11932C77.7159 8.69508 77.7955 8.20076 77.7955 7.63636C77.7955 7.07197 77.7159 6.58144 77.5568 6.16477C77.4015 5.74811 77.1705 5.42424 76.8636 5.19318C76.5606 4.96212 76.1875 4.84659 75.7443 4.84659C75.286 4.84659 74.9034 4.96591 74.5966 5.20455C74.2898 5.44318 74.0587 5.77273 73.9034 6.19318C73.7481 6.61364 73.6705 7.0947 73.6705 7.63636C73.6705 8.18182 73.7481 8.66856 73.9034 9.09659C74.0625 9.52083 74.2955 9.85606 74.6023 10.1023C74.9129 10.3447 75.2936 10.4659 75.7443 10.4659ZM85.8168 12.1705C84.9645 12.1705 84.2259 11.983 83.6009 11.608C82.9759 11.233 82.491 10.7083 82.1463 10.0341C81.8054 9.35985 81.6349 8.57197 81.6349 7.67045C81.6349 6.76894 81.8054 5.97917 82.1463 5.30114C82.491 4.62311 82.9759 4.09659 83.6009 3.72159C84.2259 3.34659 84.9645 3.15909 85.8168 3.15909C86.669 3.15909 87.4077 3.34659 88.0327 3.72159C88.6577 4.09659 89.1406 4.62311 89.4815 5.30114C89.8262 5.97917 89.9986 6.76894 89.9986 7.67045C89.9986 8.57197 89.8262 9.35985 89.4815 10.0341C89.1406 10.7083 88.6577 11.233 88.0327 11.608C87.4077 11.983 86.669 12.1705 85.8168 12.1705ZM85.8281 10.5227C86.2902 10.5227 86.6766 10.3958 86.9872 10.142C87.2978 9.88447 87.5289 9.53977 87.6804 9.10795C87.8357 8.67614 87.9134 8.19508 87.9134 7.66477C87.9134 7.13068 87.8357 6.64773 87.6804 6.21591C87.5289 5.7803 87.2978 5.43371 86.9872 5.17614C86.6766 4.91856 86.2902 4.78977 85.8281 4.78977C85.3546 4.78977 84.9607 4.91856 84.6463 5.17614C84.3357 5.43371 84.1027 5.7803 83.9474 6.21591C83.7959 6.64773 83.7202 7.13068 83.7202 7.66477C83.7202 8.19508 83.7959 8.67614 83.9474 9.10795C84.1027 9.53977 84.3357 9.88447 84.6463 10.142C84.9607 10.3958 85.3546 10.5227 85.8281 10.5227ZM93.8011 6.88636V12H91.7443V3.27273H93.7102V4.75568H93.8125C94.0133 4.26705 94.3333 3.87879 94.7727 3.59091C95.2159 3.30303 95.7633 3.15909 96.4148 3.15909C97.017 3.15909 97.5417 3.28788 97.9886 3.54545C98.4394 3.80303 98.7879 4.17614 99.0341 4.66477C99.2841 5.15341 99.4072 5.74621 99.4034 6.44318V12H97.3466V6.76136C97.3466 6.17803 97.1951 5.72159 96.892 5.39205C96.5928 5.0625 96.178 4.89773 95.6477 4.89773C95.2879 4.89773 94.9678 4.97727 94.6875 5.13636C94.411 5.29167 94.1932 5.51705 94.0341 5.8125C93.8788 6.10795 93.8011 6.46591 93.8011 6.88636ZM105.358 12.1705C104.483 12.1705 103.727 11.9886 103.091 11.625C102.458 11.2576 101.972 10.7386 101.631 10.0682C101.29 9.39394 101.119 8.60038 101.119 7.6875C101.119 6.78977 101.29 6.00189 101.631 5.32386C101.975 4.64205 102.456 4.11174 103.074 3.73295C103.691 3.35038 104.417 3.15909 105.25 3.15909C105.788 3.15909 106.295 3.24621 106.773 3.42045C107.254 3.59091 107.678 3.85606 108.045 4.21591C108.417 4.57576 108.708 5.03409 108.92 5.59091C109.133 6.14394 109.239 6.80303 109.239 7.56818V8.19886H102.085V6.8125H107.267C107.263 6.41856 107.178 6.06818 107.011 5.76136C106.845 5.45076 106.612 5.20644 106.312 5.02841C106.017 4.85038 105.672 4.76136 105.278 4.76136C104.858 4.76136 104.489 4.86364 104.17 5.06818C103.852 5.26894 103.604 5.53409 103.426 5.86364C103.252 6.18939 103.163 6.54735 103.159 6.9375V8.14773C103.159 8.6553 103.252 9.09091 103.438 9.45455C103.623 9.81439 103.883 10.0909 104.216 10.2841C104.549 10.4735 104.939 10.5682 105.386 10.5682C105.686 10.5682 105.956 10.5265 106.199 10.4432C106.441 10.3561 106.652 10.2292 106.83 10.0625C107.008 9.89583 107.142 9.68939 107.233 9.44318L109.153 9.65909C109.032 10.1667 108.801 10.6098 108.46 10.9886C108.123 11.3636 107.691 11.6553 107.165 11.8636C106.638 12.0682 106.036 12.1705 105.358 12.1705Z" fill="#54B653"/>
</svg>
