<svg width="28" height="17" viewBox="0 0 28 17" fill="none" xmlns="http://www.w3.org/2000/svg">
<path d="M19.0181 0H15.26C14.91 0 14.5731 0.132764 14.315 0.37174L10.0144 4.35467C10.01 4.3591 10.0056 4.36795 10.0013 4.37237C9.275 5.06275 9.28813 6.16469 9.90938 6.85064C10.465 7.46578 11.6331 7.62952 12.3638 6.97013C12.3681 6.9657 12.3769 6.9657 12.3812 6.96128L15.8769 3.72183C16.1612 3.46072 16.6075 3.47843 16.8656 3.76608C17.1281 4.05374 17.1062 4.50071 16.8219 4.76624L15.68 5.82393L22.05 11.0548C22.1769 11.1611 22.2906 11.2761 22.3956 11.3956V2.83231L20.0069 0.415995C19.7487 0.150466 19.39 0 19.0181 0ZM23.8 2.84116V12.7498C23.8 13.5331 24.4256 14.166 25.2 14.166H28V2.84116H23.8ZM25.9 12.7498C25.515 12.7498 25.2 12.4312 25.2 12.0417C25.2 11.6523 25.515 11.3336 25.9 11.3336C26.285 11.3336 26.6 11.6523 26.6 12.0417C26.6 12.4312 26.285 12.7498 25.9 12.7498ZM0 14.1615H2.8C3.57437 14.1615 4.2 13.5287 4.2 12.7454V2.84116H0V14.1615ZM2.1 11.3336C2.485 11.3336 2.8 11.6523 2.8 12.0417C2.8 12.4312 2.485 12.7498 2.1 12.7498C1.715 12.7498 1.4 12.4312 1.4 12.0417C1.4 11.6479 1.715 11.3336 2.1 11.3336ZM21.1706 12.1568L14.6388 6.79311L13.3263 8.01011C12.0269 9.20942 10.0362 9.09436 8.87687 7.81539C7.7 6.5143 7.79187 4.50071 9.06938 3.31468L12.6481 0H8.98188C8.61 0 8.25562 0.150466 7.99312 0.415995L5.6 2.83231V12.741H6.40063L10.36 16.3654C11.5588 17.3523 13.3219 17.1664 14.2975 15.9538L14.3062 15.945L15.0894 16.6309C15.785 17.2063 16.8131 17.0956 17.3775 16.392L18.7512 14.6837L18.9875 14.8785C19.5869 15.3697 20.4706 15.2812 20.9562 14.6705L21.3719 14.1527C21.8619 13.542 21.77 12.6524 21.1706 12.1568Z" fill="#838383"/>
</svg>
