<svg width="28" height="20" viewBox="0 0 28 20" fill="none" xmlns="http://www.w3.org/2000/svg">
<path d="M6.22222 5H21.7778V15H6.22222V5ZM25.6667 10C25.6667 11.3807 26.7113 12.5 28 12.5V17.5C28 18.8807 26.9553 20 25.6667 20H2.33333C1.04465 20 0 18.8807 0 17.5V12.5C1.28868 12.5 2.33333 11.3807 2.33333 10C2.33333 8.61927 1.28868 7.5 0 7.5V2.5C0 1.11927 1.04465 0 2.33333 0H25.6667C26.9553 0 28 1.11927 28 2.5V7.5C26.7113 7.5 25.6667 8.61927 25.6667 10ZM23.3333 4.58333C23.3333 3.89297 22.811 3.33333 22.1667 3.33333H5.83333C5.18899 3.33333 4.66667 3.89297 4.66667 4.58333V15.4167C4.66667 16.107 5.18899 16.6667 5.83333 16.6667H22.1667C22.811 16.6667 23.3333 16.107 23.3333 15.4167V4.58333Z" fill="#838383"/>
</svg>
