<svg width="6" height="7" viewBox="0 0 6 7" fill="none" xmlns="http://www.w3.org/2000/svg">
<path d="M5.79901 4.28505L4.508 3.73177C4.45285 3.70826 4.39156 3.70331 4.33335 3.71765C4.27514 3.732 4.22317 3.76486 4.18525 3.8113L3.61352 4.50983C2.71624 4.08677 1.99414 3.36467 1.57108 2.46739L2.26961 1.89565C2.31614 1.85781 2.34907 1.80583 2.36342 1.7476C2.37777 1.68936 2.37276 1.62803 2.34914 1.5729L1.79585 0.281896C1.76993 0.222465 1.72408 0.173941 1.66622 0.144692C1.60835 0.115443 1.54209 0.107302 1.47886 0.121673L0.280073 0.398317C0.219116 0.412394 0.164729 0.446716 0.12579 0.495683C0.0868515 0.544649 0.0656598 0.605368 0.0656738 0.66793C0.0656738 3.62457 2.4621 6.01639 5.41413 6.01639C5.47671 6.01643 5.53746 5.99525 5.58645 5.9563C5.63544 5.91736 5.66977 5.86296 5.68386 5.80199L5.9605 4.60319C5.97478 4.53966 5.96646 4.47314 5.93699 4.41507C5.90752 4.357 5.85872 4.31103 5.79901 4.28505Z" fill="white"/>
</svg>
