<svg width="58" height="58" viewBox="0 0 58 58" fill="none" xmlns="http://www.w3.org/2000/svg">
<path d="M58 29C58 45.0163 45.0163 58 29 58C12.9837 58 0 45.0163 0 29C0 12.9837 12.9837 0 29 0C45.0163 0 58 12.9837 58 29ZM25.6456 44.3553L47.1617 22.8391C47.8923 22.1085 47.8923 20.9239 47.1617 20.1932L44.5158 17.5473C43.7852 16.8166 42.6005 16.8166 41.8698 17.5473L24.3226 35.0944L16.1302 26.9021C15.3996 26.1714 14.2149 26.1714 13.4842 26.9021L10.8383 29.548C10.1077 30.2786 10.1077 31.4632 10.8383 32.1939L22.9996 44.3551C23.7303 45.0859 24.9149 45.0859 25.6456 44.3553Z" fill="#54B653"/>
</svg>
